# Blender v2.79 (sub 0) OBJ File: 'cone.blend'
# www.blender.org
usemtl cathedral
v 0.000000 0.000000 -1.000000
v 0.866025 0.000000 -0.500000
v 0.866025 0.000000 0.500000
v -0.000000 0.000000 1.000000
v 0.000000 7.083505 0.000000
v -0.866025 0.000000 0.500000
v -0.866025 0.000000 -0.500000
vn 0.4963 0.1214 -0.8596
vn 0.9926 0.1214 0.0000
vn 0.4963 0.1214 0.8596
vn -0.4963 0.1214 0.8596
vn -0.9926 0.1214 0.0000
vn -0.4963 0.1214 -0.8596
vn 0.0000 -1.0000 0.0000
s off
f 1//1 5//1 2//1
f 2//2 5//2 3//2
f 3//3 5//3 4//3
f 4//4 5//4 6//4
f 6//5 5//5 7//5
f 7//6 5//6 1//6
f 6//7 7//7 2//7
f 7//7 1//7 2//7
f 2//7 3//7 4//7
f 4//7 6//7 2//7
