# Blender v2.79 (sub 0) OBJ File: 'pointed.blend'
# www.blender.org
usemtl cathedral
v -0.600000 0.000000 0.500000
v -1.000000 0.000000 0.500000
v -1.000000 0.000000 -0.500000
v -0.600000 0.000000 -0.500000
v -0.000000 4.223083 0.500000
v -0.000001 7.529481 0.500000
v -1.000000 4.602971 0.500000
v -0.600000 3.529965 0.500000
v -0.360000 4.066183 0.500000
v -0.120000 4.223083 0.500000
v -1.000000 4.602971 -0.500000
v 0.000000 7.529481 -0.500000
v 0.000000 4.223083 -0.500000
v -0.120000 4.223083 -0.500000
v -0.360000 4.066183 -0.500000
v -0.600000 3.529965 -0.500000
v 1.000000 0.000000 0.500000
v 0.999999 4.602971 0.500000
v 0.120000 4.223083 0.500000
v 0.360000 4.066183 0.500000
v 0.600000 3.529965 0.500000
v 0.600000 0.000000 0.500000
v 1.000000 4.602971 -0.500000
v 1.000000 0.000000 -0.500000
v 0.600000 0.000000 -0.500000
v 0.600000 3.529965 -0.500000
v 0.360000 4.066183 -0.500000
v 0.120000 4.223083 -0.500000
vn 0.0000 -1.0000 0.0000
vn -0.0000 0.0000 1.0000
vn -1.0000 -0.0000 -0.0000
vn 0.0000 0.0000 -1.0000
vn -0.9463 0.3233 -0.0000
vn 1.0000 -0.0000 0.0000
vn 0.9463 0.3233 0.0000
vn 0.9127 -0.4085 0.0000
vn 0.5472 -0.8370 0.0000
vn -0.5472 -0.8370 0.0000
vn -0.9127 -0.4085 0.0000
s off
f 1//1 3//1 4//1
f 7//2 9//2 10//2
f 7//3 3//3 2//3
f 15//4 16//4 11//4
f 18//2 20//2 21//2
f 11//5 6//5 12//5
f 23//4 27//4 28//4
f 24//1 22//1 25//1
f 23//6 17//6 24//6
f 12//7 18//7 23//7
f 1//6 16//6 8//6
f 15//8 8//8 16//8
f 14//9 9//9 15//9
f 5//1 10//1 13//1
f 27//10 19//10 28//10
f 26//11 20//11 27//11
f 25//3 21//3 26//3
f 1//1 2//1 3//1
f 10//2 5//2 7//2
f 5//2 6//2 7//2
f 7//2 2//2 8//2
f 2//2 1//2 8//2
f 7//2 8//2 9//2
f 7//3 11//3 3//3
f 11//4 12//4 13//4
f 11//4 13//4 14//4
f 4//4 3//4 16//4
f 3//4 11//4 16//4
f 11//4 14//4 15//4
f 22//2 17//2 21//2
f 17//2 18//2 21//2
f 18//2 6//2 5//2
f 18//2 5//2 19//2
f 18//2 19//2 20//2
f 11//5 7//5 6//5
f 23//4 24//4 26//4
f 24//4 25//4 26//4
f 13//4 12//4 23//4
f 28//4 13//4 23//4
f 23//4 26//4 27//4
f 24//1 17//1 22//1
f 23//6 18//6 17//6
f 12//7 6//7 18//7
f 1//6 4//6 16//6
f 15//8 9//8 8//8
f 14//9 10//9 9//9
f 10//1 14//1 13//1
f 13//1 28//1 19//1
f 19//1 5//1 13//1
f 27//10 20//10 19//10
f 26//11 21//11 20//11
f 25//3 22//3 21//3
