# Blender v2.79 (sub 0) OBJ File: ''
# www.blender.org
mtllib trunk.mtl
o Cylinder
v 0.000000 -1.000000 -1.000000
v 0.000000 1.000000 -0.700000
v 0.195090 -1.000000 -0.980785
v 0.136563 1.000000 -0.686550
v 0.382683 -1.000000 -0.923880
v 0.267878 1.000000 -0.646716
v 0.555570 -1.000000 -0.831470
v 0.388899 1.000000 -0.582029
v 0.707107 -1.000000 -0.707107
v 0.494975 1.000000 -0.494975
v 0.831470 -1.000000 -0.555570
v 0.582029 1.000000 -0.388899
v 0.923880 -1.000000 -0.382683
v 0.646716 1.000000 -0.267878
v 0.980785 -1.000000 -0.195090
v 0.686550 1.000000 -0.136563
v 1.000000 -1.000000 -0.000000
v 0.700000 1.000000 -0.000000
v 0.980785 -1.000000 0.195090
v 0.686550 1.000000 0.136563
v 0.923880 -1.000000 0.382683
v 0.646716 1.000000 0.267878
v 0.831470 -1.000000 0.555570
v 0.582029 1.000000 0.388899
v 0.707107 -1.000000 0.707107
v 0.494975 1.000000 0.494975
v 0.555570 -1.000000 0.831470
v 0.388899 1.000000 0.582029
v 0.382683 -1.000000 0.923880
v 0.267878 1.000000 0.646716
v 0.195090 -1.000000 0.980785
v 0.136563 1.000000 0.686550
v -0.000000 -1.000000 1.000000
v -0.000000 1.000000 0.700000
v -0.195091 -1.000000 0.980785
v -0.136563 1.000000 0.686550
v -0.382684 -1.000000 0.923879
v -0.267879 1.000000 0.646715
v -0.555571 -1.000000 0.831469
v -0.388899 1.000000 0.582028
v -0.707107 -1.000000 0.707106
v -0.494975 1.000000 0.494974
v -0.831470 -1.000000 0.555570
v -0.582029 1.000000 0.388899
v -0.923880 -1.000000 0.382683
v -0.646716 1.000000 0.267878
v -0.980785 -1.000000 0.195089
v -0.686550 1.000000 0.136563
v -1.000000 -1.000000 -0.000001
v -0.700000 1.000000 -0.000001
v -0.980785 -1.000000 -0.195091
v -0.686549 1.000000 -0.136564
v -0.923879 -1.000000 -0.382684
v -0.646715 1.000000 -0.267879
v -0.831469 -1.000000 -0.555571
v -0.582028 1.000000 -0.388900
v -0.707106 -1.000000 -0.707108
v -0.494974 1.000000 -0.494975
v -0.555569 -1.000000 -0.831470
v -0.388898 1.000000 -0.582029
v -0.382682 -1.000000 -0.923880
v -0.267877 1.000000 -0.646716
v -0.195089 -1.000000 -0.980786
v -0.136562 1.000000 -0.686550
v 0.000000 -1.212417 -0.562533
v 0.109745 -1.212417 -0.551724
v 0.215272 -1.212417 -0.519713
v 0.312526 -1.212417 -0.467729
v 0.397771 -1.212417 -0.397771
v 0.467729 -1.212417 -0.312527
v 0.519713 -1.212417 -0.215272
v 0.551724 -1.212417 -0.109745
v 0.562533 -1.212417 -0.000000
v 0.551724 -1.212417 0.109744
v 0.519713 -1.212417 0.215272
v 0.467729 -1.212417 0.312526
v 0.397771 -1.212417 0.397771
v 0.312526 -1.212417 0.467729
v 0.215272 -1.212417 0.519712
v 0.109745 -1.212417 0.551724
v -0.000000 -1.212417 0.562533
v -0.109745 -1.212417 0.551724
v -0.215272 -1.212417 0.519712
v -0.312527 -1.212417 0.467729
v -0.397771 -1.212417 0.397770
v -0.467729 -1.212417 0.312526
v -0.519713 -1.212417 0.215271
v -0.551724 -1.212417 0.109744
v -0.562533 -1.212417 -0.000001
v -0.551724 -1.212417 -0.109745
v -0.519712 -1.212417 -0.215273
v -0.467728 -1.212417 -0.312527
v -0.397770 -1.212417 -0.397771
v -0.312526 -1.212417 -0.467729
v -0.215271 -1.212417 -0.519713
v -0.109744 -1.212417 -0.551724
v 0.000000 1.131796 -0.330748
v 0.064526 1.131796 -0.324392
v 0.126572 1.131796 -0.305571
v 0.183754 1.131796 -0.275007
v 0.233874 1.131796 -0.233874
v 0.275007 1.131796 -0.183754
v 0.305571 1.131796 -0.126572
v 0.324392 1.131796 -0.064526
v 0.330748 1.131796 -0.000000
v 0.324392 1.131796 0.064525
v 0.305571 1.131796 0.126571
v 0.275007 1.131796 0.183753
v 0.233874 1.131796 0.233874
v 0.183754 1.131796 0.275006
v 0.126572 1.131796 0.305571
v 0.064526 1.131796 0.324392
v -0.000000 1.131796 0.330747
v -0.064526 1.131796 0.324392
v -0.126572 1.131796 0.305571
v -0.183754 1.131796 0.275006
v -0.233874 1.131796 0.233873
v -0.275007 1.131796 0.183753
v -0.305571 1.131796 0.126571
v -0.324392 1.131796 0.064525
v -0.330747 1.131796 -0.000001
v -0.324392 1.131796 -0.064526
v -0.305571 1.131796 -0.126572
v -0.275006 1.131796 -0.183754
v -0.233873 1.131796 -0.233874
v -0.183753 1.131796 -0.275007
v -0.126571 1.131796 -0.305571
v -0.064525 1.131796 -0.324393
vn 0.0000 0.6200 -0.7846
vn 0.1740 -0.4515 -0.8751
vn 0.0000 -0.4515 -0.8922
vn 0.1531 0.6200 -0.7695
vn 0.3414 -0.4515 -0.8243
vn 0.3002 0.6200 -0.7248
vn 0.4957 -0.4515 -0.7419
vn 0.4359 0.6200 -0.6523
vn 0.6309 -0.4515 -0.6309
vn 0.5548 0.6200 -0.5548
vn 0.7419 -0.4515 -0.4957
vn 0.6523 0.6200 -0.4359
vn 0.8243 -0.4515 -0.3414
vn 0.7248 0.6200 -0.3002
vn 0.8751 -0.4515 -0.1740
vn 0.7695 0.6200 -0.1531
vn 0.8922 -0.4515 0.0000
vn 0.7846 0.6200 0.0000
vn 0.8751 -0.4515 0.1740
vn 0.7695 0.6200 0.1531
vn 0.8243 -0.4515 0.3414
vn 0.7248 0.6200 0.3002
vn 0.7419 -0.4515 0.4957
vn 0.6523 0.6200 0.4359
vn 0.6309 -0.4515 0.6309
vn 0.5548 0.6200 0.5548
vn 0.4957 -0.4515 0.7419
vn 0.4359 0.6200 0.6523
vn 0.3414 -0.4515 0.8243
vn 0.3002 0.6200 0.7248
vn 0.1740 -0.4515 0.8751
vn 0.1531 0.6200 0.7695
vn 0.0000 -0.4515 0.8922
vn 0.0000 0.6200 0.7846
vn -0.1740 -0.4515 0.8751
vn -0.1531 0.6200 0.7695
vn -0.3414 -0.4515 0.8243
vn -0.3002 0.6200 0.7248
vn -0.4957 -0.4515 0.7419
vn -0.4359 0.6200 0.6523
vn -0.6309 -0.4515 0.6309
vn -0.5548 0.6200 0.5548
vn -0.7419 -0.4515 0.4957
vn -0.6523 0.6200 0.4359
vn -0.8243 -0.4515 0.3414
vn -0.7248 0.6200 0.3002
vn -0.8751 -0.4515 0.1740
vn -0.7695 0.6200 0.1531
vn -0.8922 -0.4515 0.0000
vn -0.7846 0.6200 0.0000
vn -0.8751 -0.4515 -0.1740
vn -0.7695 0.6200 -0.1531
vn -0.8243 -0.4515 -0.3414
vn -0.7248 0.6200 -0.3002
vn -0.7419 -0.4515 -0.4957
vn -0.6523 0.6200 -0.4359
vn -0.6309 -0.4515 -0.6309
vn -0.5548 0.6200 -0.5548
vn -0.4957 -0.4515 -0.7419
vn -0.4359 0.6200 -0.6523
vn -0.3414 -0.4515 -0.8243
vn 0.1671 0.9835 -0.0692
vn -0.3002 0.6200 -0.7248
vn -0.1740 -0.4515 -0.8751
vn -0.1531 0.6200 -0.7695
vn 0.0463 -0.9714 -0.2327
vn 0.0463 -0.9714 0.2327
vn -0.2327 -0.9714 0.0463
vn -0.0463 -0.9714 -0.2327
vn 0.1973 -0.9714 0.1318
vn 0.2192 -0.9714 0.0908
vn -0.1318 -0.9714 0.1973
vn -0.1678 -0.9714 -0.1678
vn 0.2327 -0.9714 -0.0463
vn 0.2192 -0.9714 -0.0908
vn -0.2373 -0.9714 0.0000
vn 0.0908 -0.9714 -0.2192
vn -0.1678 -0.9714 0.1678
vn -0.1318 -0.9714 -0.1973
vn -0.0463 -0.9714 0.2327
vn 0.0000 -0.9714 0.2373
vn -0.2192 -0.9714 -0.0908
vn -0.2327 -0.9714 -0.0463
vn 0.1318 -0.9714 -0.1973
vn 0.1318 -0.9714 0.1973
vn 0.1678 -0.9714 0.1678
vn -0.1973 -0.9714 0.1318
vn -0.0908 -0.9714 -0.2192
vn 0.2373 -0.9714 0.0000
vn 0.1973 -0.9714 -0.1318
vn 0.1678 -0.9714 -0.1678
vn -0.2192 -0.9714 0.0908
vn 0.0000 -0.9714 -0.2373
vn 0.2327 -0.9714 0.0463
vn -0.0908 -0.9714 0.2192
vn -0.1973 -0.9714 -0.1318
vn 0.0908 -0.9714 0.2192
vn -0.0692 0.9835 0.1671
vn 0.1671 0.9835 0.0692
vn 0.0692 0.9835 -0.1671
vn 0.0692 0.9835 0.1671
vn 0.0353 0.9835 0.1774
vn -0.1774 0.9835 0.0353
vn -0.1809 0.9835 0.0000
vn 0.1504 0.9835 0.1005
vn -0.1279 0.9835 0.1279
vn -0.1279 0.9835 -0.1279
vn -0.1005 0.9835 -0.1504
vn 0.1774 0.9835 -0.0353
vn 0.0000 0.9835 0.1809
vn -0.1774 0.9835 -0.0353
vn 0.1005 0.9835 -0.1504
vn 0.1279 0.9835 0.1279
vn -0.1504 0.9835 0.1005
vn -0.0692 0.9835 -0.1671
vn 0.1809 0.9835 0.0000
vn -0.0353 0.9835 0.1774
vn -0.1671 0.9835 -0.0692
vn 0.1279 0.9835 -0.1279
vn 0.1005 0.9835 0.1504
vn -0.1671 0.9835 0.0692
vn -0.0353 0.9835 -0.1774
vn 0.1774 0.9835 0.0353
vn -0.1504 0.9835 -0.1005
vn 0.1504 0.9835 -0.1005
vn 0.0000 0.9835 -0.1809
vn 0.0353 0.9835 -0.1774
vn -0.1005 0.9835 0.1504
usemtl Material.001
s 1
f 2//1 3//2 1//3
f 4//4 5//5 3//2
f 6//6 7//7 5//5
f 8//8 9//9 7//7
f 10//10 11//11 9//9
f 12//12 13//13 11//11
f 14//14 15//15 13//13
f 16//16 17//17 15//15
f 18//18 19//19 17//17
f 20//20 21//21 19//19
f 22//22 23//23 21//21
f 24//24 25//25 23//23
f 26//26 27//27 25//25
f 28//28 29//29 27//27
f 30//30 31//31 29//29
f 32//32 33//33 31//31
f 34//34 35//35 33//33
f 36//36 37//37 35//35
f 38//38 39//39 37//37
f 40//40 41//41 39//39
f 42//42 43//43 41//41
f 44//44 45//45 43//43
f 46//46 47//47 45//45
f 48//48 49//49 47//47
f 50//50 51//51 49//49
f 52//52 53//53 51//51
f 54//54 55//55 53//53
f 56//56 57//57 55//55
f 58//58 59//59 57//57
f 60//60 61//61 59//59
f 12//12 103//62 14//14
f 62//63 63//64 61//61
f 64//65 1//3 63//64
f 5//5 66//66 3//2
f 80//67 88//68 96//69
f 21//21 76//70 75//71
f 41//41 84//72 39//39
f 59//59 93//73 57//57
f 13//13 72//74 71//75
f 33//33 80//67 31//31
f 51//51 89//76 49//49
f 7//7 67//77 5//5
f 25//25 76//70 23//23
f 43//43 85//78 41//41
f 61//61 94//79 59//59
f 17//17 72//74 15//15
f 33//33 82//80 81//81
f 51//51 91//82 90//83
f 9//9 68//84 7//7
f 25//25 78//85 77//86
f 45//45 86//87 43//43
f 63//64 95//88 61//61
f 19//19 73//89 17//17
f 37//37 82//80 35//35
f 55//55 91//82 53//53
f 9//9 70//90 69//91
f 29//29 78//85 27//27
f 47//47 87//92 45//45
f 3//2 65//93 1//3
f 1//3 96//69 63//64
f 19//19 75//71 74//94
f 39//39 83//95 37//37
f 57//57 92//96 55//55
f 13//13 70//90 11//11
f 31//31 79//97 29//29
f 49//49 88//68 47//47
f 115//98 107//99 99//100
f 32//32 111//101 112//102
f 50//50 120//103 121//104
f 4//4 99//100 6//6
f 22//22 108//105 24//24
f 40//40 117//106 42//42
f 60//60 125//107 126//108
f 16//16 103//62 104//109
f 32//32 113//110 34//34
f 50//50 122//111 52//52
f 6//6 100//112 8//8
f 24//24 109//113 26//26
f 42//42 118//114 44//44
f 62//63 126//108 127//115
f 16//16 105//116 18//18
f 34//34 114//117 36//36
f 52//52 123//118 54//54
f 10//10 100//112 101//119
f 26//26 110//120 28//28
f 46//46 118//114 119//121
f 64//65 127//115 128//122
f 18//18 106//123 20//20
f 38//38 114//117 115//98
f 56//56 123//118 124//124
f 10//10 102//125 12//12
f 28//28 111//101 30//30
f 46//46 120//103 48//48
f 4//4 97//126 98//127
f 64//65 97//126 2//1
f 20//20 107//99 22//22
f 40//40 115//98 116//128
f 56//56 125//107 58//58
f 2//1 4//4 3//2
f 4//4 6//6 5//5
f 6//6 8//8 7//7
f 8//8 10//10 9//9
f 10//10 12//12 11//11
f 12//12 14//14 13//13
f 14//14 16//16 15//15
f 16//16 18//18 17//17
f 18//18 20//20 19//19
f 20//20 22//22 21//21
f 22//22 24//24 23//23
f 24//24 26//26 25//25
f 26//26 28//28 27//27
f 28//28 30//30 29//29
f 30//30 32//32 31//31
f 32//32 34//34 33//33
f 34//34 36//36 35//35
f 36//36 38//38 37//37
f 38//38 40//40 39//39
f 40//40 42//42 41//41
f 42//42 44//44 43//43
f 44//44 46//46 45//45
f 46//46 48//48 47//47
f 48//48 50//50 49//49
f 50//50 52//52 51//51
f 52//52 54//54 53//53
f 54//54 56//56 55//55
f 56//56 58//58 57//57
f 58//58 60//60 59//59
f 60//60 62//63 61//61
f 12//12 102//125 103//62
f 62//63 64//65 63//64
f 64//65 2//1 1//3
f 5//5 67//77 66//66
f 96//69 65//93 66//66
f 66//66 67//77 96//69
f 67//77 68//84 96//69
f 68//84 69//91 70//90
f 70//90 71//75 68//84
f 71//75 72//74 68//84
f 72//74 73//89 76//70
f 73//89 74//94 76//70
f 74//94 75//71 76//70
f 76//70 77//86 80//67
f 77//86 78//85 80//67
f 78//85 79//97 80//67
f 80//67 81//81 84//72
f 81//81 82//80 84//72
f 82//80 83//95 84//72
f 84//72 85//78 86//87
f 86//87 87//92 84//72
f 87//92 88//68 84//72
f 88//68 89//76 90//83
f 90//83 91//82 92//96
f 92//96 93//73 96//69
f 93//73 94//79 96//69
f 94//79 95//88 96//69
f 88//68 90//83 96//69
f 90//83 92//96 96//69
f 96//69 68//84 72//74
f 72//74 76//70 96//69
f 76//70 80//67 96//69
f 80//67 84//72 88//68
f 21//21 23//23 76//70
f 41//41 85//78 84//72
f 59//59 94//79 93//73
f 13//13 15//15 72//74
f 33//33 81//81 80//67
f 51//51 90//83 89//76
f 7//7 68//84 67//77
f 25//25 77//86 76//70
f 43//43 86//87 85//78
f 61//61 95//88 94//79
f 17//17 73//89 72//74
f 33//33 35//35 82//80
f 51//51 53//53 91//82
f 9//9 69//91 68//84
f 25//25 27//27 78//85
f 45//45 87//92 86//87
f 63//64 96//69 95//88
f 19//19 74//94 73//89
f 37//37 83//95 82//80
f 55//55 92//96 91//82
f 9//9 11//11 70//90
f 29//29 79//97 78//85
f 47//47 88//68 87//92
f 3//2 66//66 65//93
f 1//3 65//93 96//69
f 19//19 21//21 75//71
f 39//39 84//72 83//95
f 57//57 93//73 92//96
f 13//13 71//75 70//90
f 31//31 80//67 79//97
f 49//49 89//76 88//68
f 99//100 98//127 97//126
f 97//126 128//122 99//100
f 128//122 127//115 99//100
f 127//115 126//108 125//107
f 125//107 124//124 123//118
f 123//118 122//111 121//104
f 121//104 120//103 119//121
f 119//121 118//114 117//106
f 117//106 116//128 119//121
f 116//128 115//98 119//121
f 115//98 114//117 113//110
f 113//110 112//102 115//98
f 112//102 111//101 115//98
f 111//101 110//120 107//99
f 110//120 109//113 107//99
f 109//113 108//105 107//99
f 107//99 106//123 105//116
f 105//116 104//109 107//99
f 104//109 103//62 107//99
f 103//62 102//125 99//100
f 102//125 101//119 99//100
f 101//119 100//112 99//100
f 127//115 125//107 99//100
f 125//107 123//118 99//100
f 123//118 121//104 115//98
f 121//104 119//121 115//98
f 115//98 111//101 107//99
f 107//99 103//62 99//100
f 99//100 123//118 115//98
f 32//32 30//30 111//101
f 50//50 48//48 120//103
f 4//4 98//127 99//100
f 22//22 107//99 108//105
f 40//40 116//128 117//106
f 60//60 58//58 125//107
f 16//16 14//14 103//62
f 32//32 112//102 113//110
f 50//50 121//104 122//111
f 6//6 99//100 100//112
f 24//24 108//105 109//113
f 42//42 117//106 118//114
f 62//63 60//60 126//108
f 16//16 104//109 105//116
f 34//34 113//110 114//117
f 52//52 122//111 123//118
f 10//10 8//8 100//112
f 26//26 109//113 110//120
f 46//46 44//44 118//114
f 64//65 62//63 127//115
f 18//18 105//116 106//123
f 38//38 36//36 114//117
f 56//56 54//54 123//118
f 10//10 101//119 102//125
f 28//28 110//120 111//101
f 46//46 119//121 120//103
f 4//4 2//1 97//126
f 64//65 128//122 97//126
f 20//20 106//123 107//99
f 40//40 38//38 115//98
f 56//56 124//124 125//107
