# Blender v2.79 (sub 0) OBJ File: 'window.blend'
# www.blender.org
usemtl cathedral
v 0.600000 0.286115 0.096217
v -0.600000 0.286115 0.096217
v 0.600000 1.186077 0.096217
v -0.600000 1.186077 0.096216
v 0.360000 0.286115 0.096217
v 0.120000 0.283925 0.096217
v -0.120000 0.283925 0.096217
v -0.360000 0.286115 0.096217
v 0.360000 1.486115 0.096217
v 0.120000 1.600000 0.096217
v -0.120000 1.600000 0.096217
v -0.360000 1.486115 0.096217
v 1.000000 0.000000 -1.000000
v 1.000000 0.000000 1.000000
v -1.000000 0.000000 1.000000
v -1.000000 0.000000 -1.000000
v 1.000000 2.000000 -0.999999
v 0.999999 2.000000 1.000001
v -1.000000 2.000000 1.000000
v -1.000000 2.000000 -1.000000
v -0.360000 1.486115 -1.000000
v 0.120000 1.600000 -1.000000
v 0.360000 1.486115 -1.000000
v 0.600000 1.186077 -1.000000
v 0.600000 0.348536 -1.000000
v -0.600000 1.186077 -1.000000
v -0.120000 1.600000 -1.000000
v 0.120000 0.347547 -1.000000
v 0.360000 0.348536 -1.000000
v -0.600000 0.348536 -1.000000
v -0.360000 0.348536 -1.000000
v -0.120000 0.347547 -1.000000
vn 0.0000 0.0000 -1.0000
vn 1.0000 0.0000 0.0000
vn 0.0000 -1.0000 0.0000
vn 0.0000 1.0000 0.0000
vn 0.0000 -0.0000 1.0000
vn -1.0000 -0.0000 -0.0000
vn -0.0000 0.9983 0.0579
vn 0.4287 -0.9034 0.0000
vn -0.4287 -0.9034 0.0000
vn -0.7809 -0.6246 -0.0000
vn -0.0041 0.9984 0.0568
vn 0.0000 0.9984 0.0569
vn 0.0041 0.9984 0.0568
vn 0.7809 -0.6246 0.0000
vn -0.0091 0.9983 0.0579
vn 0.0091 0.9983 0.0579
s off
f 8//1 4//1 12//1
f 30//2 4//2 2//2
f 5//1 3//1 1//1
f 6//1 9//1 5//1
f 7//1 10//1 6//1
f 7//1 12//1 11//1
f 13//3 15//3 16//3
f 20//4 18//4 17//4
f 17//2 14//2 13//2
f 18//5 15//5 14//5
f 15//6 20//6 16//6
f 17//1 22//1 20//1
f 25//6 3//6 24//6
f 7//7 28//7 32//7
f 27//8 12//8 21//8
f 32//1 28//1 16//1
f 23//9 10//9 22//9
f 3//10 23//10 24//10
f 28//11 5//11 29//11
f 30//12 8//12 31//12
f 5//12 25//12 29//12
f 8//13 32//13 31//13
f 22//3 11//3 27//3
f 21//14 4//14 26//14
f 8//1 2//1 4//1
f 30//2 26//2 4//2
f 5//1 9//1 3//1
f 6//1 10//1 9//1
f 7//1 11//1 10//1
f 7//1 8//1 12//1
f 13//3 14//3 15//3
f 20//4 19//4 18//4
f 17//2 18//2 14//2
f 18//5 19//5 15//5
f 15//6 19//6 20//6
f 17//1 13//1 24//1
f 13//1 25//1 24//1
f 21//1 26//1 20//1
f 27//1 21//1 20//1
f 17//1 24//1 23//1
f 22//1 27//1 20//1
f 17//1 23//1 22//1
f 25//6 1//6 3//6
f 7//7 6//7 28//7
f 27//8 11//8 12//8
f 16//1 20//1 26//1
f 30//1 31//1 16//1
f 31//1 32//1 16//1
f 16//1 26//1 30//1
f 25//1 13//1 29//1
f 13//1 16//1 28//1
f 28//1 29//1 13//1
f 23//9 9//9 10//9
f 3//10 9//10 23//10
f 28//15 6//15 5//15
f 30//12 2//12 8//12
f 5//12 1//12 25//12
f 8//16 7//16 32//16
f 22//3 10//3 11//3
f 21//14 12//14 4//14
